#!OML:ASF E:/inclinewalkrobotboard/Project1/Captureday1/Session1/subject1.ASF
:FULLY-SPECIFIED
:DEGREES
213
root 0 0 0 -2.101616517794581 -6.079098020539413 -7.0588629547991495
lowerback 8.930732401064066 2.963873604244495 5.469592525863172
upperback 0.24495134334865482 4.544480291877081 0.9731839807476644
thorax -4.598286398447394 2.1404484239736425 -2.6149803383689085
lowerneck -12.852814469158018 -3.530795485349212 -1.72140299744183
upperneck 13.194064884352317 -5.007022554855404 3.5525076569569887
head 6.166765204368032 -2.278887354674878 0.9603913204957568
rclavicle -3.028741159366296E-15 -1.5764876147029905E-15
rhumerus -30.622776353382953 -17.494419030460215 -83.75634267437334
rradius 20.892761135775125
rwrist 13.580262079199482
rhand -19.01272864510048 30.73954853076326
rfingers 7.125020000000001
rthumb 7.304189507351308 0.6894114917949778
lclavicle -4.181433732733448E-15 -1.2090797251984052E-15
lhumerus -34.97945638168671 8.064309393025736 79.55998524650066
lradius 16.781198074976842
lwrist -1.2128340604483179
lhand -27.304711568614934 27.435250890192744
lfingers 7.12501999999999
lthumb -0.7594029527371724 57.51899859342474
rfemur -11.628270277806465 5.271666020098934 28.139304749962477
rtibia 40.77097608370829
rfoot -8.772128650312801 -6.285975163207466
rtoes 5.293520006721751
lfemur -17.763021539360707 -0.36443140848938205 -17.68982988667485
ltibia 36.82341857656104
lfoot -2.6383872556945605 -4.2088445733678626
ltoes -2.4133432138032553
214
root 0 0 0 -2.1436213686361025 -6.076570707567844 -6.992760432403209
lowerback 9.03336173530876 2.945886606210679 5.419181924203682
upperback 0.33351086048421597 4.515646661364155 0.9818051448584635
thorax -4.559821776014191 2.127613536223122 -2.5732816126499642
lowerneck -12.811020412613043 -3.537612570106298 -1.7377763717206007
upperneck 13.302377943924906 -5.007972083423132 3.545339072857061
head 6.191164761834537 -2.2809529160295448 0.9589295640595084
rclavicle -2.9758219176632117E-15 -1.594219379886144E-15
rhumerus -30.527973939024143 -17.559332074942724 -83.67422169105723
rradius 21.08620230257837
rwrist 13.591593993486793
rhand -19.07617819722427 30.758823613074306
rfingers 7.125020000000002
rthumb 7.243166698428092 0.7011092752346428
lclavicle -4.140895938066826E-15 -1.2441018109364697E-15
lhumerus -34.94825603958106 7.999344946356021 79.555114734636
lradius 16.869529314024298
lwrist -1.1312048448866752
lhand -27.32848917790588 27.474696273016743
lfingers 7.12501999999999
lthumb -0.7820331860633312 57.5603187294506
rfemur -11.927121077276519 5.221892304483347 28.028713113732294
rtibia 40.976453927912374
rfoot -8.64501311216805 -6.326872629969046
rtoes 5.293682253938766
lfemur -17.366312298356533 -0.5749644588848466 -17.856149455789488
ltibia 36.42638580812135
lfoot -2.900025237103952 -4.04711177048206
ltoes -2.1993107077524563
215
root 0 0 0 -2.194946382935397 -6.075615024966066 -6.915322186757269
lowerback 9.147362334295744 2.920799411145242 5.3657258311081995
upperback 0.4388628807672582 4.476948264634417 0.9932049285493089
thorax -4.509423534602877 2.109903735665872 -2.5254104141683453
lowerneck -12.778794617605799 -3.5406312024465714 -1.7577074210173045
upperneck 13.43041543959308 -5.000795269344772 3.52680281927383
head 6.221088720032676 -2.279946761081638 0.9544411041010581
rclavicle -2.9275983548811948E-15 -1.6222308902860437E-15
rhumerus -30.410942924420915 -17.643715666459002 -83.58085602999941
rradius 21.324610377596038
rwrist 13.64872046275265
rhand -19.15688972629698 30.77980756367652
rfingers 7.125020000000002
rthumb 7.165669169437252 0.7127069990720685
lclavicle -4.1052115139685265E-15 -1.2882078647969145E-15
lhumerus -34.915407057896395 7.931869066005734 79.54808335219028
lradius 16.962394007610733
lwrist -1.0452414875235316
lhand -27.354125687381664 27.516143570871613
lfingers 7.125019999999991
lthumb -0.8064974011110726 57.60378350280273
rfemur -12.231479038763261 5.168923708647514 27.89907061639002
rtibia 41.15400777688179
rfoot -8.514848799291675 -6.368073767201241
rtoes 5.2818459589098
lfemur -16.893055132433936 -0.8250846610294094 -18.047704189375597
ltibia 35.96158357117802
lfoot -3.2141864551787 -3.8526185170969183
ltoes -1.9670506154299332
216
root 0 0 0 -2.3379916483000343 -6.068547495388922 -6.75279652467032
lowerback 9.283343036400389 2.8641829689599634 5.244435837057689
upperback 0.5936907643173877 4.390925977191947 1.0184612242553
thorax -4.417851989055551 2.0702970275157297 -2.4160864780433364
lowerneck -12.810148457139247 -3.5486856650540526 -1.8027835564874226
upperneck 13.785370970159313 -4.994625661148204 3.4830927354872863
head 6.331686450750451 -2.2791961778238967 0.9411743055034816
rclavicle -2.82890713465396E-15 -1.6165981004642737E-15
rhumerus -30.24325651688811 -17.929678667441344 -83.3851385272305
rradius 21.640785379354597
rwrist 13.719515693160616
rhand -19.28516142699877 30.755732645262853
rfingers 7.125020000000003
rthumb 7.042837235197432 0.6741376658832721
lclavicle -4.024842805217994E-15 -1.3133121696460847E-15
lhumerus -34.874771873304894 7.8138258276389 79.52142581705826
lradius 17.1452764799242
lwrist -0.8833574576090863
lhand -27.398242845246628 27.58460590351959
lfingers 7.125019999999993
lthumb -0.848211903387809 57.67609705520704
rfemur -12.731396811293411 5.062603252602033 27.621265950742654
rtibia 41.42133744758286
rfoot -8.251840778763599 -6.419374389511756
rtoes 5.257670287786731
lfemur -15.90526597568645 -1.2990563346707826 -18.427746087560056
ltibia 35.09584854617569
lfoot -3.8334171142744378 -3.4948458605820654
ltoes -1.5661475177229178
217
root 0 0 0 -2.4773890553160918 -6.0679095105800025 -6.582548206076496
lowerback 9.440425186905694 2.7949260118556594 5.136216910887135
upperback 0.7944786295213117 4.288329930593204 1.0485715792736554
thorax -4.287632490260065 2.022029877650753 -2.3064610162836057
lowerneck -12.835884167052495 -3.536745968066023 -1.8468185861266728
upperneck 14.207762685117059 -4.956852310918247 3.4128120737061227
head 6.457785044410563 -2.264563418628444 0.9210781566037745
rclavicle -2.7956969952283036E-15 -1.7158012649891036E-15
rhumerus -30.161088994111577 -18.06914130592132 -83.32885917763302
rradius 21.88080877336604
rwrist 13.915250270793614
rhand -19.399704879435497 30.76080075585981
rfingers 7.125020000000003
rthumb 6.933090916651094 0.6664712996511426
lclavicle -3.998039335826788E-15 -1.4212717579586126E-15
lhumerus -34.82316572839047 7.718381530644106 79.51745882558718
lradius 17.26984376871583
lwrist -0.7666116613868352
lhand -27.43364384871161 27.64311572087579
lfingers 7.125019999999994
lthumb -0.8823686169618217 57.73694579230097
rfemur -13.176462737613104 4.969087957850002 27.414751615972193
rtibia 41.77202069527763
rfoot -8.004567629165951 -6.462617456683084
rtoes 5.28527402229041
lfemur -15.041191268823386 -1.7025803390059897 -18.74255364891047
ltibia 34.39143579142645
lfoot -4.358640395601226 -3.198366276014703
ltoes -1.2596463096983896
218
root 0 0 0 -2.6953225837057966 -6.062881909679022 -6.320450975223021
lowerback 9.607349351914982 2.6849155959179796 4.963608439558196
upperback 1.0672217307281688 4.12489638121188 1.0928217171814667
thorax -4.084553126034022 1.9451021222781937 -2.134556035646977
lowerneck -12.901404139995316 -3.505468514689554 -1.906002544532479
upperneck 14.95459504648728 -4.888410163641331 3.3029748318791787
head 6.690274237190177 -2.2342910703055816 0.8884167198440498
rclavicle -2.7545042775885987E-15 -1.7857689603362764E-15
rhumerus -30.112242410325223 -18.25277645903612 -83.28908158832031
rradius 22.112245063206224
rwrist 14.164983031185518
rhand -19.52849729803808 30.737014815160933
rfingers 7.125020000000003
rthumb 6.810111765326166 0.6279756966176819
lclavicle -3.966533740276828E-15 -1.521549777289534E-15
lhumerus -34.757880700805394 7.5942625749050565 79.51456130289563
lradius 17.432836710089383
lwrist -0.6152395951858143
lhand -27.47784585815176 27.71553211373016
lfingers 7.125019999999995
lthumb -0.9246474373409388 57.81207519886273
rfemur -13.74609113262744 4.860323448607758 27.165130741212966
rtibia 42.169229027190866
rfoot -7.723337228333069 -6.528727591523479
rtoes 5.295713701690167
lfemur -13.849962510445742 -2.220498872395907 -19.147636248393646
ltibia 33.4922516837849
lfoot -5.082843862969902 -2.8056937810961586
ltoes -0.9705411867823983
